<?xml version="1.0" encoding="utf-8"?>
<!-- Generator: Adobe Illustrator 19.1.0, SVG Export Plug-In . SVG Version: 6.00 Build 0)  -->
<svg version="1.1" id="Layer_1" xmlns="http://www.w3.org/2000/svg" xmlns:xlink="http://www.w3.org/1999/xlink" x="0px" y="0px"
	 viewBox="1168 366.8 51 51" style="enable-background:new 1168 366.8 51 51;" xml:space="preserve">
<path d="M1206.8,401v1.9c0,0.3-0.1,0.5-0.3,0.7s-0.4,0.3-0.7,0.3h-21.3c-0.3,0-0.5-0.1-0.7-0.3s-0.3-0.4-0.3-0.7V401
	c0-0.3,0.1-0.5,0.3-0.7s0.4-0.3,0.7-0.3h21.3c0.3,0,0.5,0.1,0.7,0.3S1206.8,400.7,1206.8,401z M1206.8,393.2v1.9
	c0,0.3-0.1,0.5-0.3,0.7c-0.2,0.2-0.4,0.3-0.7,0.3h-21.3c-0.3,0-0.5-0.1-0.7-0.3c-0.2-0.2-0.3-0.4-0.3-0.7v-1.9
	c0-0.3,0.1-0.5,0.3-0.7s0.4-0.3,0.7-0.3h21.3c0.3,0,0.5,0.1,0.7,0.3S1206.8,393,1206.8,393.2z M1206.8,385.5v1.9
	c0,0.3-0.1,0.5-0.3,0.7s-0.4,0.3-0.7,0.3h-21.3c-0.3,0-0.5-0.1-0.7-0.3s-0.3-0.4-0.3-0.7v-1.9c0-0.3,0.1-0.5,0.3-0.7
	s0.4-0.3,0.7-0.3h21.3c0.3,0,0.5,0.1,0.7,0.3S1206.8,385.2,1206.8,385.5z"/>
</svg>
