<?xml version="1.0" encoding="utf-8"?>
<!-- Generator: Adobe Illustrator 19.1.0, SVG Export Plug-In . SVG Version: 6.00 Build 0)  -->
<svg version="1.1" id="Layer_1" xmlns="http://www.w3.org/2000/svg" xmlns:xlink="http://www.w3.org/1999/xlink" x="0px" y="0px"
	 viewBox="598 -476.1 1792 1792" style="enable-background:new 598 -476.1 1792 1792;" xml:space="preserve">
<style type="text/css">
	.st0{fill:#FFFFFF;}
</style>
<path class="st0" d="M1622,67.9v448c0,9.3-3,17-9,23s-13.7,9-23,9h-320c-9.3,0-17-3-23-9s-9-13.7-9-23v-64c0-9.3,3-17,9-23
	s13.7-9,23-9h224v-352c0-9.3,3-17,9-23s13.7-9,23-9h64c9.3,0,17,3,23,9S1622,58.6,1622,67.9z M2038,419.9c0-98.7-24.3-189.7-73-273
	s-114.7-149.3-198-198s-174.3-73-273-73s-189.7,24.3-273,73s-149.3,114.7-198,198s-73,174.3-73,273s24.3,189.7,73,273
	s114.7,149.3,198,198s174.3,73,273,73s189.7-24.3,273-73s149.3-114.7,198-198S2038,518.6,2038,419.9z M2262,419.9
	c0,139.3-34.3,267.8-103,385.5s-161.8,210.8-279.5,279.5s-246.2,103-385.5,103s-267.8-34.3-385.5-103
	C990.8,1016.2,897.7,923.1,829,805.4S726,559.2,726,419.9s34.3-267.8,103-385.5s161.8-210.8,279.5-279.5
	c117.7-68.7,246.2-103,385.5-103s267.8,34.3,385.5,103S2090.3-83.3,2159,34.4S2262,280.6,2262,419.9z"/>
</svg>
