<?xml version="1.0" encoding="utf-8"?>
<!-- Generator: Adobe Illustrator 19.1.0, SVG Export Plug-In . SVG Version: 6.00 Build 0)  -->
<svg version="1.1" id="Layer_1" xmlns="http://www.w3.org/2000/svg" xmlns:xlink="http://www.w3.org/1999/xlink" x="0px" y="0px"
	 viewBox="598 -476.1 1792 1792" style="enable-background:new 598 -476.1 1792 1792;" xml:space="preserve">
<style type="text/css">
	.st0{fill:#FFFFFF;}
</style>
<path class="st0" d="M2390,855.9v209h-642v-209h134v-926h-6l-314,1135h-243l-310-1135h-8v926h135v209H598v-209h69
	c14,0,28.3-6.5,43-19.5s22-25.5,22-37.5v-881c0-12-7.3-25.3-22-40s-29-22-43-22h-69v-209h672l221,821h6l223-821h670v209h-71
	c-12.7,0-26.3,7.3-41,22s-22,28-22,40v881c0,12,7.2,24.5,21.5,37.5s28.2,19.5,41.5,19.5H2390z"/>
</svg>
