<?xml version="1.0" encoding="utf-8"?>
<!-- Generator: Adobe Illustrator 19.1.0, SVG Export Plug-In . SVG Version: 6.00 Build 0)  -->
<svg version="1.1" id="Layer_1" xmlns="http://www.w3.org/2000/svg" xmlns:xlink="http://www.w3.org/1999/xlink" x="0px" y="0px"
	 viewBox="598 -476.1 1792 1792" style="enable-background:new 598 -476.1 1792 1792;" xml:space="preserve">
<style type="text/css">
	.st0{fill:#FFFFFF;}
</style>
<path class="st0" d="M2088,845.9c0,26.7-9.3,49.3-28,68l-136,136c-18.7,18.7-41.3,28-68,28s-49.3-9.3-68-28l-294-294l-294,294
	c-18.7,18.7-41.3,28-68,28c-26.7,0-49.3-9.3-68-28l-136-136c-18.7-18.7-28-41.3-28-68s9.3-49.3,28-68l294-294l-294-294
	c-18.7-18.7-28-41.3-28-68s9.3-49.3,28-68l136-136c18.7-18.7,41.3-28,68-28c26.7,0,49.3,9.3,68,28l294,294l294-294
	c18.7-18.7,41.3-28,68-28s49.3,9.3,68,28l136,136c18.7,18.7,28,41.3,28,68s-9.3,49.3-28,68l-294,294l294,294
	C2078.7,796.6,2088,819.2,2088,845.9z"/>
</svg>
